{"title":"Rychly Prachy (PRAHA - 10.03.2012) - Veronika","uid":7117441,"size":311532072,"categoryP":"porn","categoryS":"movies","magnet":"?xt=urn:btih:4d6ca4a12937738caf530bc84039c49672de9594&amp;dn=Rychly+Prachy+%28PRAHA+-+10.03.2012%29+-+Veronika&amp;tr=udp%3A%2F%2Ftracker.openbittorrent.com%3A80&amp;tr=udp%3A%2F%2Fopen.demonii.com%3A1337&amp;tr=udp%3A%2F%2Ftracker.coppersurfer.tk%3A6969&amp;tr=udp%3A%2F%2Fexodus.desync.com%3A6969","seeders":0,"leechers":1,"uploader":null,"files":4,"time":1332252321,"description":"\n\n                Rychly Prachy (PRAHA - 10.03.2012) - Veronika\n\n  Without advertising kinotip!\n\nScreen:         &lt;a href=&quot; http://image.bayimg.com/bannpaadg.jpg&quot; rel=&quot;nofollow&quot; target=&quot;_NEW&quot;&gt; http://image.bayimg.com/bannpaadg.jpg&lt;/a&gt;\nOficial website: http://rychlyprachy.cz/\nDirect Link:    &lt;a href=&quot; http://rychlyprachy.cz/video59.cz.html&quot; rel=&quot;nofollow&quot; target=&quot;_NEW&quot;&gt; http://rychlyprachy.cz/video59.cz.html&lt;/a&gt;\n\n\n\nGeneral\nComplete name                            : Rychly Prachy (PRAHA - 10.03.2012) - Veronika.wmv\nFormat                                   : Windows Media\nFile size                                : 297 MiB\nDuration                                 : 15mn 45s\nOverall bit rate mode                    : Constant\nOverall bit rate                         : 2 634 Kbps\nMaximum Overall bit rate                 : 2 645 Kbps\nEncoded date                             : UTC 2012-03-11 11:32:39.410\nSfOriginalFPS                            : 300000\n\nVideo\nID                                       : 2\nFormat                                   : VC-1\nFormat profile                           : MP@ML\nCodec ID                                 : WMV3\nCodec ID/Info                            : Windows Media Video 9\nCodec ID/Hint                            : WMV3\nDescription of the codec                 : Windows Media Video 9 - Professional\nDuration                                 : 15mn 45s\nBit rate mode                            : Constant\nBit rate                                 : 2 525 Kbps\nWidth                                    : 640 pixels\nHeight                                   : 480 pixels\nDisplay aspect ratio                     : 4:3\nFrame rate                               : 30.000 fps\nBit depth                                : 8 bits\nScan type                                : Progressive\nCompression mode                         : Lossy\nBits/(Pixel*Frame)                       : 0.274\nStream size                              : 285 MiB (96%)\nLanguage                                 : Czech\n\nAudio\nID                                       : 1\nFormat                                   : WMA\nFormat version                           : Version 2\nCodec ID                                 : 161\nCodec ID/Info                            : Windows Media Audio\nDescription of the codec                 : Windows Media Audio 9.2 -  96 kbps, 44 kHz, stereo (A/V) 1-pass CBR\nDuration                                 : 15mn 45s\nBit rate mode                            : Constant\nBit rate                                 : 96.0 Kbps\nChannel(s)                               : 2 channels\nSampling rate                            : 44.1 KHz\nBit depth                                : 16 bits\nStream size                              : 10.8 MiB (4%)\nLanguage                                 : Czech\n\n\n\n\n\n","torrent":{"xt":"urn:btih:4d6ca4a12937738caf530bc84039c49672de9594","amp;dn":"Rychly+Prachy+%28PRAHA+-+10.03.2012%29+-+Veronika","amp;tr":["udp%3A%2F%2Ftracker.openbittorrent.com%3A80","udp%3A%2F%2Fopen.demonii.com%3A1337","udp%3A%2F%2Ftracker.coppersurfer.tk%3A6969","udp%3A%2F%2Fexodus.desync.com%3A6969"],"infoHash":"4d6ca4a12937738caf530bc84039c49672de9594","infoHashBuffer":{"type":"Buffer","data":[77,108,164,161,41,55,115,140,175,83,11,200,64,57,196,150,114,222,149,148]},"announce":[],"urlList":[]}}